<svg xmlns="http://www.w3.org/2000/svg" xmlns:xlink="http://www.w3.org/1999/xlink" width="20" height="20" viewBox="0 0 20 20">
  <defs>
    <clipPath id="clip-closed">
      <rect width="20" height="20"/>
    </clipPath>
  </defs>
  <g id="closed" clip-path="url(#clip-closed)">
    <path id="Union_4" data-name="Union 4" d="M0-1a1,1,0,0,1,.707.293L6,4.586,11.293-.707a1,1,0,0,1,1.414,0A1,1,0,0,1,13,0a1,1,0,0,1-.293.707L7.414,6l5.293,5.293a1,1,0,0,1-1.414,1.414L6,7.414.707,12.707a1,1,0,0,1-1.414,0A1,1,0,0,1-1,12a1,1,0,0,1,.293-.707L4.586,6-.707.707A1,1,0,0,1-1,0,1,1,0,0,1-.707-.707,1,1,0,0,1,0-1Z" transform="translate(4.273 4.471)"/>
  </g>
</svg>
