<svg xmlns="http://www.w3.org/2000/svg" xmlns:xlink="http://www.w3.org/1999/xlink" width="20" height="20" viewBox="0 0 20 20">
  <defs>
    <clipPath id="clip-fullscreen">
      <rect width="20" height="20"/>
    </clipPath>
  </defs>
  <g id="fullscreen" clip-path="url(#clip-fullscreen)">
    <path id="Union_5" data-name="Union 5" d="M-1379-1035.945a1,1,0,0,1-1-1V-1040a1,1,0,0,1,1-1,1,1,0,0,1,1,1v2.053h2.06a1,1,0,0,1,1,1,1,1,0,0,1-1,1Zm5.06-3.526a2,2,0,0,1-2-2v-6a2,2,0,0,1,2-2h6a2,2,0,0,1,2,2v6a2,2,0,0,1-2,2Zm0-2h6v-6h-6Zm10.06-7.476V-1051h-2.06a1,1,0,0,1-1-1,1,1,0,0,1,1-1h3.06a1,1,0,0,1,1,1v3.053a1,1,0,0,1-1,1A1,1,0,0,1-1363.88-1048.947Z" transform="translate(1381 1054.5)"/>
  </g>
</svg>
